<?xml version="1.0" encoding="utf-8"?>
<!-- Generator: Adobe Illustrator 22.0.1, SVG Export Plug-In . SVG Version: 6.00 Build 0)  -->
<svg version="1.1" id="Layer_1" xmlns="http://www.w3.org/2000/svg" xmlns:xlink="http://www.w3.org/1999/xlink" x="0px" y="0px"
	 viewBox="0 0 34 34" style="enable-background:new 0 0 34 34;" xml:space="preserve">
<style type="text/css">
	.st0{fill:#FFFFFF;}
</style>
<path class="st0" d="M17.7,20.5v-0.2l-0.2-0.5l-0.2,0.3c-0.1,0.1-0.1,0.1-0.1,0.2c-0.8,0.1-0.3,0.5-0.2,0.8s0.1,1.1,0.7,1.4
	s0.3,0.2,0.4-0.2s0-0.8,0.2-1s0.6-0.2,1-0.3s0.4-0.1,0.6-0.3c0.3-0.2,0.6-0.2,0.8,0.1c0,0,0,0.1,0.1,0.1c0.3,0.4,0.5,1,0.8,1.5
	l0.3,0.3c0.5-0.2,0.7,0.2,0.7,0.5c-0.1,0.4-0.2,0.8-0.3,1.2c0,0.1-0.1,0.2-0.1,0.3s0.2,0.1,0.3,0c0.5-0.2,1-0.6,1.1-1.2
	c0.1-0.3,0.2-0.7,0.4-1c0.1-0.2,0.4-0.3,0.6-0.3c0.1,0,0.3,0.2,0.4,0.4h-0.1c-0.4-0.4-0.6-0.2-0.8,0.2s-0.1,0.6-0.2,0.9
	c-0.2,0.8-0.8,1.4-1.6,1.6L22,25.5h0.3c0.6,0.1,1.1,0.2,1.4,0.9h0.5c0-0.1-0.1-0.3,0-0.4s0.1-0.5,0.1-0.7s0.5,0,0.6,0.2
	s0.2,0.5-0.2,0.7l-0.3,0.3c0.1,0.1,0.2,0.3,0.3,0.3l1.1,0.5c0.2,0.1,0.4,0.3,0.5,0.6c0.1,0.2,0,0.5-0.3,0.4H9.1l-0.7-0.2
	c0.2-0.2,0.3-0.6,0.6-0.8l1.5-0.7c0.4-0.2,0.8-0.5,1.2-0.9c0.1,0,0-0.2-0.1-0.2L10.7,25c-0.8-0.4-1.3-1.2-1.2-2.1l0.2-0.3
	c0,0.1,0.1,0.2,0.1,0.3c0.2,0.9,1,1.6,1.9,1.7c0.1,0.1,0.2,0,0.3,0v-0.3c0-0.5-0.1-1-0.1-1.4s0.1-0.7,0.7-0.7s0.4-0.4,0.5-0.6
	c0.1-0.4,0.2-0.8,0.2-1.2c0.1-0.4,0.3-0.4,0.6-0.4H16c0.2,0,0.3-0.3,0.4-0.4h-0.5c-0.7-0.1-1.4-0.1-2.1,0c-0.2,0-0.4,0.2-0.6,0.3
	s-0.4,0.4-0.5,0.3s-0.5-0.4-0.3-0.8s0.3-1.2,1-1.5s0.3-0.5,0.4-0.8s0.6-0.6,1.1-0.6s0.9,0.1,1.1,0.6c0.2,0.5,0.5,0.9,0.9,1.3
	c0.2,0.3,0.5,0.3,0.9,0c0.2-0.2,0.5-0.2,0.7-0.3L19,18l0.3-0.3c0.1,0.1,0.3,0.3,0.3,0.4s0,0.7,0.5,0.7h0.1c0,0.6-0.2,1.1-0.6,1.6
	c-0.6,0.3-1.2,0.3-1.8,0h-0.1L17.7,20.5z M24.5,26.4c0.1-0.1,0.1-0.3,0.1-0.4c0-0.1-0.1-0.1-0.2-0.1s-0.1,0-0.1,0.1L24.5,26.4z
	 M14.1,10.5c0,0.6,0,1.3,0.1,1.9c0,0.2,0.1,0.4,0.3,0.6c0.5,0.1,0.6,0.5,0.6,0.9s-0.2,0.9-0.8,1c-0.5,0.2-1-0.1-1.2-0.5
	c-0.2-0.3-0.3-0.3-0.5-0.1c-0.4,0.5-1.1,0.7-1.7,0.6c-0.3,0-0.6,0-0.8-0.2c-0.9-0.5-1.3-1.5-1.1-2.5c-0.1-0.9,0.5-1.8,1.4-2l1.4-0.4
	c0.6-0.3,0.8-0.8,0.5-1.3s-0.4-0.3-0.6-0.4l-0.4,0.6c0,0.6-0.2,0.9-0.8,0.9s-0.9-0.2-1-0.8c-0.2-0.9,0.3-1.7,1.1-2c0,0,0.1,0,0.1,0
	c0.5-0.1,0.9-0.2,1.4-0.1c1-0.1,1.9,0.6,2,1.6c0,0.1,0,0.2,0,0.3C14.1,8.6,14.1,10.5,14.1,10.5z M12.4,11.8c0.1-0.4,0-0.7-0.5-0.4
	s-0.5,0.1-0.7,0.3s-0.5,0.5-0.4,0.9s0.4,0.6,0.6,0.5c0.3,0,0.6-0.2,0.8-0.4C12.4,12.4,12.4,12.1,12.4,11.8z"/>
<path class="st0" d="M6,17.2V4.3c0-0.5,0.1-0.7,0.7-0.7h12.4l0.2,0.2h-0.2c-0.2,0.1-0.4,0-0.6,0c-3.8,0-7.6,0.1-11.5,0
	C6.5,3.8,6.3,4,6.3,4.6v25.2c0,0.5,0.2,0.7,0.7,0.7h20.3c0.5,0,0.7-0.2,0.7-0.7c-0.1-7.7,0-15.3,0-23c0-0.2,0.1-0.4,0.1-0.7
	c0.1,0.3,0.2,0.5,0.2,0.8v23.3c0,0.5-0.1,0.6-0.7,0.6H6.7c-0.6,0-0.7-0.1-0.7-0.7V17.2z"/>
<path class="st0" d="M23.8,10.8v1.6c0,0.4,0.1,0.6,0.5,0.5s0.8,0.1,0.9,0.7s-0.2,1.1-0.8,1.1h-2.8c-0.5,0-0.8-0.3-0.7-1
	s0.3-0.9,0.8-0.8s0.5-0.1,0.5-0.5V9.1c0-0.4-0.1-0.5-0.5-0.5S21,8.4,20.9,7.8s0.3-1,0.8-0.9s0.6-0.1,0.6-0.6c0-0.3,0-0.7,0.1-1
	c0.1-0.9,0.9-1.5,1.7-1.4c0.1,0,0.2,0,0.3,0c0.9,0.1,1.5,0.8,1.5,1.7c0,0.1,0,0.3-0.1,0.4c-0.1,0.4-0.3,0.7-0.8,0.6
	s-0.6-0.3-0.6-0.7s-0.2-0.3-0.2-0.4c-0.2,0.1-0.3,0.2-0.4,0.4v0.5c-0.1,0.4,0.1,0.5,0.5,0.5S25,7.1,25,7.7s-0.2,1-0.7,0.9
	s-0.5,0.2-0.5,0.5V10.8z M16.5,10.7V9.1c0-0.4-0.1-0.6-0.6-0.5l-0.6-0.3c-0.3-0.9,0.2-1.6,1.1-1.5h0.3c0.7-0.1,1.3-0.1,1.1,0.9h0.1
	c0-0.1,0-0.1,0.1-0.1l0.2-0.4c0.3-0.5,0.8-0.7,1.3-0.7c0.5,0,1,0.4,1.1,0.9c0.2,0.5,0.3,1.1,0.2,1.7c0,0.7-0.4,1-0.9,0.9
	s-0.8-0.4-0.8-1S19,8.7,19,8.5l-0.5,0.4c-0.1,0.3-0.2,0.6-0.2,0.9c-0.1,0.8-0.1,1.7-0.1,2.5c0,0.3,0.1,0.5,0.5,0.4s0.8,0.1,0.9,0.7
	s-0.2,1.1-0.8,1.1c-1,0.1-1.9,0.1-2.9,0c-0.2,0-0.5-0.3-0.6-0.5s0-0.5,0-0.8s0.3-0.7,0.7-0.5c0.4,0.2,0.5-0.1,0.5-0.4
	C16.5,12.3,16.5,10.7,16.5,10.7z M16.1,20H16c0-0.1,0-0.1,0.1-0.1l0,0V20z M13.8,20c0,0.1,0,0.1-0.1,0.1h0h0.1V20z"/>
</svg>
