<svg xmlns="http://www.w3.org/2000/svg" id="Layer_1" viewBox="0 0 34 34" width="34" height="34"><style>.st0{fill:#fff}</style><path d="M17.7 20.5v-.2l-.2-.5-.2.3c-.1.1-.1.1-.1.2-.8.1-.3.5-.2.8s.1 1.1.7 1.4.3.2.4-.2 0-.8.2-1 .6-.2 1-.3.4-.1.6-.3c.3-.2.6-.2.8.1 0 0 0 .1.1.1.3.4.5 1 .8 1.5l.3.3c.5-.2.7.2.7.5l-.3 1.2c0 .1-.1.2-.1.3s.2.1.3 0c.5-.2 1-.6 1.1-1.2.1-.3.2-.7.4-1 .1-.2.4-.3.6-.3.1 0 .3.2.4.4h-.1c-.4-.4-.6-.2-.8.2s-.1.6-.2.9c-.2.8-.8 1.4-1.6 1.6l-.3.2h.3c.6.1 1.1.2 1.4.9h.5c0-.1-.1-.3 0-.4s.1-.5.1-.7.5 0 .6.2.2.5-.2.7l-.3.3c.1.1.2.3.3.3l1.1.5c.2.1.4.3.5.6.1.2 0 .5-.3.4H9.1l-.7-.2c.2-.2.3-.6.6-.8l1.5-.7c.4-.2.8-.5 1.2-.9.1 0 0-.2-.1-.2l-.9-.5c-.8-.4-1.3-1.2-1.2-2.1l.2-.3c0 .1.1.2.1.3.2.9 1 1.6 1.9 1.7.1.1.2 0 .3 0v-.3c0-.5-.1-1-.1-1.4s.1-.7.7-.7.4-.4.5-.6c.1-.4.2-.8.2-1.2.1-.4.3-.4.6-.4H16c.2 0 .3-.3.4-.4h-.5c-.7-.1-1.4-.1-2.1 0-.2 0-.4.2-.6.3s-.4.4-.5.3-.5-.4-.3-.8.3-1.2 1-1.5.3-.5.4-.8.6-.6 1.1-.6.9.1 1.1.6c.2.5.5.9.9 1.3.2.3.5.3.9 0 .2-.2.5-.2.7-.3l.5-.1.3-.3c.1.1.3.3.3.4s0 .7.5.7h.1c0 .6-.2 1.1-.6 1.6-.6.3-1.2.3-1.8 0h-.1v.1zm6.8 5.9c.1-.1.1-.3.1-.4 0-.1-.1-.1-.2-.1s-.1 0-.1.1l.2.4zM14.1 10.5c0 .6 0 1.3.1 1.9 0 .2.1.4.3.6.5.1.6.5.6.9s-.2.9-.8 1c-.5.2-1-.1-1.2-.5-.2-.3-.3-.3-.5-.1-.4.5-1.1.7-1.7.6-.3 0-.6 0-.8-.2-.9-.5-1.3-1.5-1.1-2.5-.1-.9.5-1.8 1.4-2l1.4-.4c.6-.3.8-.8.5-1.3s-.4-.3-.6-.4l-.4.6c0 .6-.2.9-.8.9s-.9-.2-1-.8c-.2-.9.3-1.7 1.1-2h.1c.5-.1.9-.2 1.4-.1 1-.1 1.9.6 2 1.6v2.2zm-1.7 1.3c.1-.4 0-.7-.5-.4s-.5.1-.7.3-.5.5-.4.9.4.6.6.5c.3 0 .6-.2.8-.4.2-.3.2-.6.2-.9z" class="st0"/><path d="M6 17.2V4.3c0-.5.1-.7.7-.7h12.4l.2.2h-.2c-.2.1-.4 0-.6 0-3.8 0-7.6.1-11.5 0-.5 0-.7.2-.7.8v25.2c0 .5.2.7.7.7h20.3c.5 0 .7-.2.7-.7-.1-7.7 0-15.3 0-23 0-.2.1-.4.1-.7.1.3.2.5.2.8v23.3c0 .5-.1.6-.7.6H6.7c-.6 0-.7-.1-.7-.7V17.2z" class="st0"/><path d="M23.8 10.8v1.6c0 .4.1.6.5.5s.8.1.9.7-.2 1.1-.8 1.1h-2.8c-.5 0-.8-.3-.7-1s.3-.9.8-.8.5-.1.5-.5V9.1c0-.4-.1-.5-.5-.5s-.7-.2-.8-.8.3-1 .8-.9.6-.1.6-.6c0-.3 0-.7.1-1 .1-.9.9-1.5 1.7-1.4h.3c.9.1 1.5.8 1.5 1.7 0 .1 0 .3-.1.4-.1.4-.3.7-.8.6s-.6-.3-.6-.7-.2-.3-.2-.4c-.2.1-.3.2-.4.4v.5c-.1.4.1.5.5.5s.7.2.7.8-.2 1-.7.9-.5.2-.5.5v1.7zm-7.3-.1V9.1c0-.4-.1-.6-.6-.5l-.6-.3c-.3-.9.2-1.6 1.1-1.5h.3c.7-.1 1.3-.1 1.1.9h.1c0-.1 0-.1.1-.1l.2-.4c.3-.5.8-.7 1.3-.7s1 .4 1.1.9c.2.5.3 1.1.2 1.7 0 .7-.4 1-.9.9s-.8-.4-.8-1-.1-.3-.1-.5l-.5.4c-.1.3-.2.6-.2.9-.1.8-.1 1.7-.1 2.5 0 .3.1.5.5.4s.8.1.9.7-.2 1.1-.8 1.1c-1 .1-1.9.1-2.9 0-.2 0-.5-.3-.6-.5s0-.5 0-.8.3-.7.7-.5c.4.2.5-.1.5-.4v-1.6zm-.4 9.3H16c0-.1 0-.1.1-.1v.1zm-2.3 0c0 .1 0 .1-.1.1h.1V20z" class="st0"/></svg>