<svg xmlns="http://www.w3.org/2000/svg" width="34" height="34" viewBox="0 0 34 34"><path fill="#247ba0" d="M17.7 20.5v-.2l-.2-.5-.2.3a.3.3 0 0 0-.1.2c-.8.1-.3.5-.2.8s.1 1.1.7 1.4.3.2.4-.2 0-.8.2-1 .6-.2 1-.3.4-.1.6-.3a.6.6 0 0 1 .9.2c.3.4.5 1 .8 1.5l.3.3c.5-.2.7.2.7.5a5.3 5.3 0 0 1-.3 1.2c0 .1-.1.2-.1.3s.2.1.3 0a1.7 1.7 0 0 0 1.1-1.2 4.2 4.2 0 0 1 .4-1 .7.7 0 0 1 .6-.3c.1 0 .3.2.4.4h-.1c-.4-.4-.6-.2-.8.2s-.1.6-.2.9a2.3 2.3 0 0 1-1.6 1.6l-.3.2h.3c.6.1 1.1.2 1.4.9h.5c0-.1-.1-.3 0-.4s.1-.5.1-.7.5 0 .6.2.2.5-.2.7l-.3.3c.1.1.2.3.3.3l1.1.5a1 1 0 0 1 .5.6c.1.2 0 .5-.3.4H9.1l-.7-.2c.2-.2.3-.6.6-.8l1.5-.7a5.4 5.4 0 0 0 1.2-.9c.1 0 0-.2-.1-.2l-.9-.5a2 2 0 0 1-1.2-2.1l.2-.3c0 .1.1.2.1.3a2.1 2.1 0 0 0 1.9 1.7c.1.1.2 0 .3 0v-.3c0-.5-.1-1-.1-1.4s.1-.7.7-.7.4-.4.5-.6a5 5 0 0 0 .2-1.2c.1-.4.3-.4.6-.4H16c.2 0 .3-.3.4-.4h-.5a7.4 7.4 0 0 0-2.1 0c-.2 0-.4.2-.6.3s-.4.4-.5.3-.5-.4-.3-.8.3-1.2 1-1.5.3-.5.4-.8.6-.6 1.1-.6.9.1 1.1.6a6 6 0 0 0 .9 1.3q.3.4.9 0c.2-.2.5-.2.7-.3l.5-.1.3-.3c.1.1.3.3.3.4s0 .7.5.7h.1a2.7 2.7 0 0 1-.6 1.6 1.7 1.7 0 0 1-1.8 0h-.1zm6.8 5.9a.8.8 0 0 0 .1-.4c0-.1-.1-.1-.2-.1s-.1 0-.1.1zM14.1 10.5a12.1 12.1 0 0 0 .1 1.9 1.1 1.1 0 0 0 .3.6c.5.1.6.5.6.9s-.2.9-.8 1a1 1 0 0 1-1.2-.5c-.2-.3-.3-.3-.5-.1a1.9 1.9 0 0 1-1.7.6 1.1 1.1 0 0 1-.8-.2A2.3 2.3 0 0 1 9 12.2a1.9 1.9 0 0 1 1.4-2l1.4-.4c.6-.3.8-.8.5-1.3s-.4-.3-.6-.4l-.4.6c0 .6-.2.9-.8.9s-.9-.2-1-.8a1.6 1.6 0 0 1 1.2-2 3.2 3.2 0 0 1 1.4-.1 1.8 1.8 0 0 1 2 1.9v1.9zm-1.7 1.3c.1-.4 0-.7-.5-.4s-.5.1-.7.3-.5.5-.4.9.4.6.6.5a1.2 1.2 0 0 0 .8-.4 1.3 1.3 0 0 0 .2-.9z"/><path fill="#247ba0" d="M6 17.2V4.3c0-.5.1-.7.7-.7h12.4l.2.2h-.2c-.2.1-.4 0-.6 0-3.8 0-7.6.1-11.5 0-.5 0-.7.2-.7.8v25.2c0 .5.2.7.7.7h20.3c.5 0 .7-.2.7-.7-.1-7.7 0-15.3 0-23 0-.2.1-.4.1-.7a2.4 2.4 0 0 1 .2.8v23.3c0 .5-.1.6-.7.6H6.7c-.6 0-.7-.1-.7-.7z"/><path fill="#247ba0" d="M23.8 10.8v1.6c0 .4.1.6.5.5s.8.1.9.7-.2 1.1-.8 1.1h-2.8c-.5 0-.8-.3-.7-1s.3-.9.8-.8.5-.1.5-.5V9.1c0-.4-.1-.5-.5-.5s-.7-.2-.8-.8.3-1 .8-.9.6-.1.6-.6a3.4 3.4 0 0 1 .1-1 1.6 1.6 0 0 1 2-1.4A1.6 1.6 0 0 1 25.8 6c-.1.4-.3.7-.8.6s-.6-.3-.6-.7-.2-.3-.2-.4a.8.8 0 0 0-.4.4v.5c-.1.4.1.5.5.5s.7.2.7.8-.2 1-.7.9-.5.2-.5.5zm-7.3-.1V9.1c0-.4-.1-.6-.6-.5l-.6-.3c-.3-.9.2-1.6 1.1-1.5h.3c.7-.1 1.3-.1 1.1.9h.1c0-.1 0-.1.1-.1l.2-.4a1.4 1.4 0 0 1 1.3-.7 1.2 1.2 0 0 1 1.1.9 3.5 3.5 0 0 1 .2 1.7c0 .7-.4 1-.9.9s-.8-.4-.8-1-.1-.3-.1-.5l-.5.4a2.9 2.9 0 0 0-.2.9 20.9 20.9 0 0 0-.1 2.5c0 .3.1.5.5.4s.8.1.9.7-.2 1.1-.8 1.1a28 28 0 0 1-2.9 0c-.2 0-.5-.3-.6-.5s0-.5 0-.8.3-.7.7-.5.5-.1.5-.4v-1.6zm-1.6 9.4zm1.2-.1H16a.1.1 0 0 1 .1-.1zm-.5.1zm-1.8-.1a.1.1 0 0 1-.1.1h.1zm.6.1zm3.4.4z"/></svg>